<?xml version="1.0" encoding="utf-8"?>
<!-- Generator: Adobe Illustrator 23.0.3, SVG Export Plug-In . SVG Version: 6.00 Build 0)  -->
<svg version="1.0" id="Laag_1" xmlns="http://www.w3.org/2000/svg" xmlns:xlink="http://www.w3.org/1999/xlink" x="0px" y="0px"
	 viewBox="0 0 153.9 106" style="enable-background:new 0 0 153.9 106;" xml:space="preserve">
<style type="text/css">
	.st0{fill:#00953B;}
	.st1{fill:#333333;}
</style>
<g id="layer1" transform="translate(-15.27 -169.802)">
	<g id="Group_21">
		<g id="g5155">
			<g id="g6310" transform="translate(-28.27 297.999)">
				<path id="path6306" class="st0" d="M160.5-127.3c0-1.1-0.4-1.2-1-0.3L146-104.2c-0.5,0.9-1.7,1.2-2.6,0.7l-12.1-7
					c-1.1-0.5-2.3-0.5-3.4,0l-3.8,2.2c-1,0.6-1.6,1.7-1.7,2.9v40c0,1.1,0.4,1.2,1,0.3l13.5-23.3c0.5-0.9,1.7-1.2,2.6-0.7l12.1,7
					c1.1,0.5,2.3,0.5,3.4,0l3.8-2.2c1-0.6,1.6-1.7,1.7-2.9L160.5-127.3L160.5-127.3z"/>
				<path id="path6308" class="st0" d="M80.3-127.3c0-1.1,0.4-1.2,1-0.3l13.5,23.3c0.5,0.9,1.7,1.2,2.6,0.7l12.1-7
					c1.1-0.5,2.3-0.5,3.4,0l3.8,2.2c1,0.6,1.6,1.7,1.7,2.9v40c0,1.1-0.4,1.2-1,0.3l-13.5-23.3c-0.5-0.9-1.7-1.2-2.6-0.7l-12.1,7
					c-1.1,0.5-2.3,0.5-3.4,0l-3.8-2.2c-1-0.6-1.6-1.7-1.7-2.9L80.3-127.3L80.3-127.3z"/>
			</g>
			<path id="path6312" class="st1" d="M15.3,258.6c0,0,0-3.5,5.8-3.5h7.2c0.7,0,1.5-0.2,2.1-0.6c1-0.5,1.3-1.8,0.8-2.7
				c-0.2-0.3-0.4-0.6-0.8-0.8c-0.6-0.4-1.4-0.6-2.1-0.6h-13v-8h11.4c3.9-0.1,7.7,1,10.9,3.1c3,2,4.4,4.4,4.4,7.2
				c0,2.1-0.9,4.2-2.5,5.6l-0.7,0.7l0.7,0.7c1.6,1.5,2.5,3.5,2.5,5.7c0,2.8-1.4,5.2-4.4,7.2c-3.2,2.1-7,3.2-10.9,3.1H15.3v-8h13
				c0.7,0,1.5-0.2,2.1-0.6c0.6-0.4,1-1,1-1.7c0-0.7-0.4-1.4-1-1.7c-0.6-0.4-1.4-0.6-2.1-0.6h-13"/>
			<path id="path6314" class="st1" d="M61,263c2.9-0.3,5.8-1.3,8.2-2.9c2.9-2,4.4-4.4,4.4-7.2s-1.4-5.2-4.4-7.2
				c-3.2-2.1-7-3.2-10.8-3.1H46.3v8h13c0.8,0,1.5,0.2,2.1,0.6c0.6,0.4,1,1,1,1.7c0,0.7-0.4,1.4-1,1.7c-0.6,0.4-1.4,0.6-2.1,0.6H52
				c-5.8,0-5.8,3.5-5.8,3.5v4.5l12.4,12.7h15L61,263L61,263z"/>
			<path id="path6316" class="st1" d="M156.5,263c2.9-0.3,5.8-1.3,8.2-2.9c2.9-2,4.4-4.4,4.4-7.2s-1.4-5.2-4.4-7.2
				c-3.2-2.1-7-3.2-10.8-3.1h-12.1v8h12.9c0.8,0,1.5,0.2,2.1,0.6c0.6,0.4,1,1,1,1.7c0,0.7-0.4,1.4-1,1.7c-0.6,0.4-1.4,0.6-2.1,0.6
				h-7.2c-5.8,0-5.8,3.5-5.8,3.5v4.5l12.4,12.7h15L156.5,263z"/>
			<g id="g6326" transform="translate(122.998 275.833)">
				<path id="path6324" class="st1" d="M0,0l-12.5-12.7v-8c0,0,5.8-6,9-9.2c2.5-2.3,5.8-3.5,9.2-3.5h8.7L-1.9-16.7L14.4,0H0z"/>
			</g>
			<g id="g6354" transform="translate(-83.889 -172.533)">
				<path id="path6322" class="st1" d="M161.9,435.7h22.4c5.8,0,5.8-3.5,5.8-3.5v-4.5h-22.4c-5.8,0-5.8,3.5-5.8,3.5
					C161.9,433.4,161.9,435.7,161.9,435.7L161.9,435.7z"/>
				<rect id="rect6350" x="163.1" y="431" class="st1" width="27" height="4.6"/>
			</g>
			<path id="path6356" class="st1" d="M78,267.8v8h22.4c5.8,0,5.8-3.5,5.8-3.5c0-2.3,0-4.5,0-4.5L78,267.8L78,267.8z"/>
			<path id="path6362" class="st1" d="M83.8,242.5c-5.8,0-5.8,3.5-5.8,3.5c0,2.3,0,4.5,0,4.5h28.2v-8L83.8,242.5L83.8,242.5z"/>
			<path id="path6368" class="st1" d="M78,263.1h28.2v-8H78V263.1z"/>
		</g>
	</g>
</g>
</svg>
