<svg xmlns="http://www.w3.org/2000/svg" width="550" height="105"><g fill="#06038d" transform="rotate(-86.33471,51.179136,53.978857)"><path d="m47.416 43.3304 32.22-14.8c.34-.15.73.08.76.46l2.79 43.63c.02.22.17.41.38.48l22.23 6.94c.36.11.72-.18.69-.55l-5.06-78.99c-.02-.37-.41-.61-.75-.45L.316 46.1404c-.45.2-.41.84.06.99l73.28 22.88c.55.17.94-.52.53-.91l-26.91-24.89c-.28-.26-.21-.72.14-.88"/><path d="m105.026 485.4704-1.49-23.2-13.65-6.22 1.48 23.19-40.95-18.69 1.69 26.4 40.96 18.69 1.39 21.78 14.68 22.2z"/><path d="m89.976 250.4404-54.61-24.92 1.53 23.92 54.61 24.92Z"/><path d="M92.806 294.6104c-.47-7.29-6.96-15.99-14.5-19.43l-40.96-18.69.86 13.42c.47 7.2 6.87 15.77 14.33 19.14l24.17 11.03c3.73 1.77 4.33 6.55 4.39 7.16l1.76 27.38-20.16-9.18-1.2-18.67-9.3-13.91 1.83 28.6-12.89-5.88 1.81 28.21 54.61 24.93z"/><path d="m102.466 445.5304-4.46-69.58-54.6-24.77 1.69 26.4 41.71 18.92 1.54 23.92s.4 6.11-4.65 3.77l-36.68-16.63 1.69 26.4 40.95 18.57c7.54 3.43 13.28.29 12.81-7"/><path d="m68.476 233.1804-1.95-30.36-12.93-19.33 1.14 17.72-8.67-4-1.78-27.72 25.72 11.76c3.13 1.5 3.33 4.74 3.33 4.74l2.4 37.39 13.85 20.9-4.41-68.9c-.47-7.29-6.96-16-14.51-19.45l-40.96-18.75 4.35 68c.47 7.2 6.88 15.77 14.32 19.14l20.12 9.11z"/></g></svg>