<svg xmlns="http://www.w3.org/2000/svg" width="179.65" height="32.29" viewBox="0 0 179.65 32.29"><g fill="#000"><path d="M179.65 10.84h-6.77l-4.45 2.75-2.18-2.74h-5.98l4.15 5.21-8.85 5.46h6.76l4.32-2.66 2.12 2.66h5.98l-4.09-5.13 8.99-5.55zM110.12 14.37l-2.34-2.93a1.67 1.67 0 00-1.32-.64H93.77L89.63 18 92 20.88a1.71 1.71 0 001.33.64H106zm-13.9 0h9.39L103.54 18h-9.41zM132.26 10.8h-16.94l-6.22 10.72h4.51l4.16-7.15h4.49l-4.16 7.15h4.53l4.14-7.15h4.64l-4.15 7.15h4.52l4.14-7.15-2.34-2.93a1.67 1.67 0 00-1.32-.64zM72 14.37l-2.34-2.93a1.67 1.67 0 00-1.32-.64H55.6l-6.21 10.72L52 24.8l1.91-3.28h13.9zM65.36 18H56l2-3.63h9.4zM90.64 10.8H78.12a1.7 1.7 0 00-1.47.84l-5.72 9.88h4.52l4.14-7.15h9zM154.11 10.8h-13l-6.21 10.72h8.1l5.77-3.52h-7.28l2.08-3.58h9.7l-4.16 7.15h4.53l4.14-7.15-2.34-2.93a1.71 1.71 0 00-1.33-.69zM14.65 21.52L12.6 25.1h16.56a3.65 3.65 0 003.18-1.84l4.9-8.57-4.12-7.19-3.22-5.63A3.72 3.72 0 0026.68 0H10.07L8 3.56h17.9a1.65 1.65 0 011.42.82L29 7.33l-4 7H10.16l-4 7-2-3.57 4-7h14.43l2.05-3.56H8.08A3.65 3.65 0 004.9 9L0 17.6l4.12 7.19 3.22 5.63a3.72 3.72 0 003.22 1.87h16.61l2-3.56-17.9-.05a1.63 1.63 0 01-1.42-.82L8.23 25l4-7h14.85l4-6.95 2 3.56-4 7z"/></g></svg>