<svg xmlns="http://www.w3.org/2000/svg" xmlns:xlink="http://www.w3.org/1999/xlink" id="&#x5716;&#x5C64;_1" x="0px" y="0px" viewBox="0 0 156.1 41.3" xml:space="preserve"><g>	<g>		<path fill-rule="evenodd" clip-rule="evenodd" fill="#000000" d="M107.6,33.2h17.2l5.2-17.3h9.2l2.6-8.2h-36l-2.6,8.2h9.6   L107.6,33.2 M57,30.8c6.7,2.7,16.5,3.4,23.6,3.1c11.7-0.6,19.1-5.8,18.9-10.8c-0.2-3.5-2.8-4.5-9.9-5.5c-3.6-0.5-8.4-0.6-7.8-2.2   c0.3-0.9,1.6-1,4.3-1.1c2.8-0.1,8.5,0.8,13.7,3.2l2.7-8.8c-4.8-1.3-11.2-1.6-18.2-1.3c-12.8,0.7-20.5,5.5-20.3,10.7   c0.1,3.2,5,5.5,14.1,5.8c2.4,0.2,3.6,0.6,3.6,1.6c0,0.4-0.5,0.6-1.6,0.9c-4,1.1-12-0.1-15.9-2.6L57,30.8z M14.4,33.2h16.9l2.5-8.2   l4.7,8.2h19.4l-9.3-9.7c7-0.7,10.9-3.4,11-7.9c0.1-5.5-5.7-7.9-19.2-7.9H21.5L14.4,33.2z M34.9,19l1.2-4.7h1.6   c4.2,0,4.7,0.7,4.7,2.1c0,1.7-0.6,2.6-5.2,2.6H34.9z"></path>		<path fill="#000000" d="M77.5,34.5C77.5,34.5,77.5,34.5,77.5,34.5c-3.8,0-13.4-0.3-20.6-3.2l-0.2-0.1l2.3,2.4H38.2l-4.3-7.4   l-2.2,7.4H13.7l7.4-26.5h19.2c9.7,0,15.4,1.2,18,3.9c1.2,1.2,1.8,2.7,1.7,4.5c-0.1,4.5-3.8,7.4-10.4,8.2l6.7,7l7.9-7.7l0.3,0.2   c2.6,1.7,7.6,2.9,11.9,2.9c1.4,0,2.7-0.1,3.6-0.4c0.4-0.1,1.1-0.3,1.2-0.4c0-0.7-1.7-1-3.1-1.1c-9.1-0.3-14.5-2.6-14.6-6.2   c-0.3-5.9,8.3-10.6,20.8-11.2c7.7-0.4,14,0.1,18.4,1.3l0.5,0.1l-3,9.9L99.6,18c-4.7-2.1-10.2-3.1-13.2-3.1l-0.3,0   c-2.5,0.1-3.7,0.2-3.9,0.7c0,0.1,0,0.1,0,0.1c0.4,0.6,3.1,0.9,5,1.1c0.8,0.1,1.6,0.2,2.4,0.3c7.1,1,10.1,2,10.3,5.9   c0.1,1.7-0.6,3.4-2.1,5c-3.3,3.6-9.7,6-17.3,6.3C79.6,34.5,78.6,34.5,77.5,34.5z M58,30.7c7,2.5,15.9,2.8,19.5,2.8c0,0,0,0,0,0   c1.1,0,2.1,0,3.1-0.1c7.3-0.4,13.5-2.6,16.6-6c1.2-1.4,1.9-2.9,1.8-4.3c-0.2-2.9-2.1-4-9.4-5c-0.7-0.1-1.5-0.2-2.3-0.3   c-3.2-0.3-5.2-0.6-5.8-1.6c-0.2-0.3-0.2-0.7-0.1-1c0.5-1.2,2-1.3,4.8-1.4l0.3,0c3,0,8.4,0.9,13.1,3l2.4-7.8   c-4.3-1.1-10.2-1.5-17.6-1.1c-13.3,0.7-20,5.7-19.8,10.2c0.1,3,5.3,5,13.7,5.3c1.9,0.1,4.1,0.5,4.1,2.1c0,0.8-0.8,1.1-2,1.4   c-1.1,0.3-2.4,0.4-3.9,0.4c-4.3,0-9.2-1.2-12.1-2.9L58,30.7z M38.7,32.7h17.9l-9.2-9.6l1-0.1c4.7-0.4,10.4-2.1,10.5-7.4   c0-1.5-0.4-2.8-1.4-3.8c-2.4-2.4-8.1-3.6-17.3-3.6H21.9L15,32.7h15.9l2.7-9L38.7,32.7z M125.1,33.7h-18.2l5.2-17.3h-9.6l2.9-9.2   h37.1l-2.9,9.2h-9.2L125.1,33.7z M108.3,32.7h16.1l5.2-17.3h9.2l2.3-7.2h-35l-2.3,7.2h9.6L108.3,32.7z M37.3,19.5h-3l1.5-5.7h2   c4,0,5.2,0.6,5.2,2.6C43,18.8,41.6,19.5,37.3,19.5z M35.6,18.5h1.7c4.7,0,4.7-1,4.7-2.1c0-0.9,0-1.6-4.2-1.6h-1.2L35.6,18.5z"></path>	</g></g></svg>