<?xml version="1.0" encoding="utf-8"?>
<!-- Generator: Adobe Illustrator 22.0.1, SVG Export Plug-In . SVG Version: 6.00 Build 0)  -->
<svg version="1.1" id="Ebene_1" xmlns="http://www.w3.org/2000/svg" xmlns:xlink="http://www.w3.org/1999/xlink" x="0px" y="0px"
	 viewBox="0 0 359.1 51.6" style="enable-background:new 0 0 359.1 51.6;" xml:space="preserve">
<style type="text/css">
	.st0{fill:#000000;}
	.st1{fill:#000000;}
</style>
<path class="st0" d="M219.1,17.1c-4.6-0.6-9.5,3.1-10.9,8.3c-1.4,5.2,1.2,9.9,5.8,10.5c4.6,0.6,9.5-3.1,10.9-8.3
	C226.3,22.4,223.7,17.7,219.1,17.1"/>
<polygon class="st0" points="125.3,30.4 129.3,16.9 110.6,16.9 "/>
<path class="st0" d="M289.5,18.8C287.6,31.5,278,31.4,278,31.4s0.9,3.6,6,4.5l-2.5,8.7H278c0,0-9.8-2.7-11.3-11.9l2.8-10.3h7.7
	c0,0,3.1-0.1,3.3-3c0.2-2.4-1.7-3.3-2.9-3.4h-8.8l-7.1,24.5c-1.5,3.6-5,4.5-7.4,4.6H235c-3.2-0.2-5.8-2.8-5.8-6
	c0-0.8,0.7-2.9,0.7-2.9c-4.4,5.9-11.5,9.5-18.3,8.6c-9.4-1.3-14.8-10.6-12.1-20.7c0.7-2.5,1.8-4.9,3.2-6.9h-6.1l-8.4,28h-9.7
	l8.4-28.2h-5.3l2.6-9.1h35c0.7,0,1.5,0,2.2,0.1c7.2,1,12,6.6,12.7,13.7l4.1-13.9h9.6l-7.3,24.6c-0.1,0.3-0.2,0.8-0.2,1.2
	c0,1.4,1.2,2.5,2.6,2.5h7.5c1.1,0,2.3-0.8,2.9-2.4l8.2-26.1h18.1C282.2,7.5,291.2,7.8,289.5,18.8 M162.8,45.1l-4.2-16.6l-3.5,11.2
	c-1.1,3.5-3.6,5.2-7.4,5.3H129c-2.9-0.1-4.8-2.3-5.2-5c-0.7,1.5-3.4,5.1-7.2,5.2c-4.8,0.1-23.9,0-23.9,0l2.6-8.6h20.4l-8.8-7.4
	c-3.2-2.9-6-6.1-6-10.6c0-6.1,4.8-10.4,10.8-11h30.2c0,0-7.5,25.5-7.6,25.9c-0.5,1.7,0.5,3,2.6,3.1h7.5c0.9,0,2.4-0.8,3.2-3.5
	l7.7-25.4h8.5l3.9,16.8l4.8-16.8h9.6l-11,37.3h-8.3L162.8,45.1L162.8,45.1z M91.7,22.2c-1,2.7-2.7,4.8-4.8,6.2c0,0,2.2-0.4,1.6,2
	C87.9,32.8,84.2,45,84.2,45H72.3l3.4-11.8c0,0,0.8-2.1-2.1-2.2c-2-0.1-6.5,0-8,0l-4.2,14h-12l6.5-21.9h19.3c1.7,0,3.6-0.5,4.5-2.4
	c1.1-2.2,0.7-4.6-1.3-5.1C78,15.5,77,15.5,77,15.5l-19,0.1l2.4-7.9l23.2-0.1c1.1,0,2.5,0,3.5,0.5C91.9,10.1,93.8,16.5,91.7,22.2
	 M39.5,45.1h-4.7H9.1l2.2-7.1H33c1.9-0.1,3.7-0.4,4.6-2.3c1.1-2.2,0.5-4.3-1.3-5.2c-0.4-0.2-1.2-0.3-1.7-0.3h-9.1
	c-1,0-1.9-0.3-2.9-0.6c-4.9-1.8-7-8.1-4.9-14c1.7-4.7,5.8-7.8,9.9-7.9L58,7.6l-2.4,8H32.9c-1.5,0-3.1,0.3-3.9,1.9
	c-1.1,2.2-0.7,4.3,1.1,5.2c0.4,0.2,1.5,0.4,1.9,0.4h9.4c1.1,0,2.2,0.1,3.3,0.5c4.8,1.7,6.9,7.9,4.8,13.6
	C47.7,41.9,43.6,45.2,39.5,45.1 M293.7,7.1C289.1,0.6,280.3,1,280.3,1h-46.9l-1.3,4.1C226.6,0.8,219.3,1,219.3,1H111.8
	C102.5,1.1,97,8.8,97,8.8C93.7,1,84.8,1,84.8,1H27.4c-7.5,0.4-15.2,6.8-16.8,15.7c-1.6,8.8,3.5,14.7,3.5,14.7H6.3L0,51.6
	c0,0,113.6,0.2,117.1,0.1s5.8-1.8,5.8-1.8c2.6,1.7,6.2,1.6,6.2,1.6h20.3c3.2-0.2,7.4-2.9,7.4-2.9l0.9,3h35.4l3-9.3
	C209,58.8,226.5,48,226.5,48c3.6,3.5,8,3.5,8,3.5s13.7,0.1,21.1,0s11-6,11-6c3.8,3.8,10.5,6,10.5,6h9.8l5.8-20.5l-1-0.2
	c0.7-1,2.4-3.8,3.2-6.2C295.8,22.2,298.3,13.6,293.7,7.1"/>
<polygon class="st1" points="359.8,1 311.2,1 304.4,26.3 311.2,51.7 359.8,51.7 "/>
</svg>
